<mxfile host="app.diagrams.net" agent="Mozilla/5.0 (Windows NT 10.0; Win64; x64) AppleWebKit/537.36 (KHTML, like Gecko) Chrome/131.0.0.0 Safari/537.36 OPR/116.0.0.0 (Edition Yx GX 03)" version="26.0.15">
  <diagram name="Страница — 1" id="fNWx3UA8gZo3shjhw8Ax">
    <mxGraphModel dx="886" dy="1674" grid="1" gridSize="10" guides="1" tooltips="1" connect="1" arrows="1" fold="1" page="1" pageScale="1" pageWidth="827" pageHeight="1169" math="0" shadow="0">
      <root>
        <mxCell id="0" />
        <mxCell id="1" parent="0" />
        <mxCell id="ImJ2bCplzyaBCTmgJxFO-3" value="" style="edgeStyle=orthogonalEdgeStyle;rounded=0;orthogonalLoop=1;jettySize=auto;html=1;" parent="1" source="ImJ2bCplzyaBCTmgJxFO-1" edge="1">
          <mxGeometry relative="1" as="geometry">
            <mxPoint x="414" y="110" as="targetPoint" />
          </mxGeometry>
        </mxCell>
        <mxCell id="ImJ2bCplzyaBCTmgJxFO-1" value="Начало" style="ellipse;whiteSpace=wrap;html=1;" parent="1" vertex="1">
          <mxGeometry x="354" y="10" width="120" height="80" as="geometry" />
        </mxCell>
        <mxCell id="SXrv_YwFLO8PzRH1nG7U-3" value="" style="edgeStyle=orthogonalEdgeStyle;rounded=0;orthogonalLoop=1;jettySize=auto;html=1;" edge="1" parent="1" source="SXrv_YwFLO8PzRH1nG7U-1" target="SXrv_YwFLO8PzRH1nG7U-2">
          <mxGeometry relative="1" as="geometry" />
        </mxCell>
        <mxCell id="SXrv_YwFLO8PzRH1nG7U-1" value="Ввод двоичного числа" style="shape=parallelogram;perimeter=parallelogramPerimeter;whiteSpace=wrap;html=1;fixedSize=1;" vertex="1" parent="1">
          <mxGeometry x="350" y="110" width="120" height="60" as="geometry" />
        </mxCell>
        <mxCell id="SXrv_YwFLO8PzRH1nG7U-5" value="" style="edgeStyle=orthogonalEdgeStyle;rounded=0;orthogonalLoop=1;jettySize=auto;html=1;" edge="1" parent="1" source="SXrv_YwFLO8PzRH1nG7U-2" target="SXrv_YwFLO8PzRH1nG7U-4">
          <mxGeometry relative="1" as="geometry" />
        </mxCell>
        <mxCell id="SXrv_YwFLO8PzRH1nG7U-2" value="&lt;div&gt;Инициализация&lt;/div&gt;&lt;div&gt;переменных&lt;/div&gt;&lt;div&gt;Z=0&lt;/div&gt;&lt;div&gt;Y=0&lt;/div&gt;" style="whiteSpace=wrap;html=1;" vertex="1" parent="1">
          <mxGeometry x="350" y="210" width="120" height="60" as="geometry" />
        </mxCell>
        <mxCell id="SXrv_YwFLO8PzRH1nG7U-7" value="" style="edgeStyle=orthogonalEdgeStyle;rounded=0;orthogonalLoop=1;jettySize=auto;html=1;" edge="1" parent="1" source="SXrv_YwFLO8PzRH1nG7U-4">
          <mxGeometry relative="1" as="geometry">
            <mxPoint x="540" y="640" as="targetPoint" />
          </mxGeometry>
        </mxCell>
        <mxCell id="SXrv_YwFLO8PzRH1nG7U-15" value="" style="edgeStyle=orthogonalEdgeStyle;rounded=0;orthogonalLoop=1;jettySize=auto;html=1;" edge="1" parent="1" source="SXrv_YwFLO8PzRH1nG7U-4" target="SXrv_YwFLO8PzRH1nG7U-14">
          <mxGeometry relative="1" as="geometry" />
        </mxCell>
        <mxCell id="SXrv_YwFLO8PzRH1nG7U-4" value="Есть ещё биты?" style="rhombus;whiteSpace=wrap;html=1;" vertex="1" parent="1">
          <mxGeometry x="370" y="310" width="80" height="80" as="geometry" />
        </mxCell>
        <mxCell id="SXrv_YwFLO8PzRH1nG7U-27" value="" style="edgeStyle=orthogonalEdgeStyle;rounded=0;orthogonalLoop=1;jettySize=auto;html=1;" edge="1" parent="1" source="SXrv_YwFLO8PzRH1nG7U-8" target="SXrv_YwFLO8PzRH1nG7U-26">
          <mxGeometry relative="1" as="geometry" />
        </mxCell>
        <mxCell id="SXrv_YwFLO8PzRH1nG7U-8" value="&lt;font&gt;Вывод результата&lt;/font&gt;" style="shape=parallelogram;perimeter=parallelogramPerimeter;whiteSpace=wrap;html=1;fixedSize=1;" vertex="1" parent="1">
          <mxGeometry x="474" y="640" width="136" height="80" as="geometry" />
        </mxCell>
        <mxCell id="SXrv_YwFLO8PzRH1nG7U-9" value="нет" style="text;html=1;align=center;verticalAlign=middle;whiteSpace=wrap;rounded=0;" vertex="1" parent="1">
          <mxGeometry x="460" y="310" width="60" height="30" as="geometry" />
        </mxCell>
        <mxCell id="SXrv_YwFLO8PzRH1nG7U-10" value="да" style="text;html=1;align=center;verticalAlign=middle;whiteSpace=wrap;rounded=0;" vertex="1" parent="1">
          <mxGeometry x="310" y="320" width="60" height="30" as="geometry" />
        </mxCell>
        <mxCell id="SXrv_YwFLO8PzRH1nG7U-17" value="" style="edgeStyle=orthogonalEdgeStyle;rounded=0;orthogonalLoop=1;jettySize=auto;html=1;" edge="1" parent="1" source="SXrv_YwFLO8PzRH1nG7U-14" target="SXrv_YwFLO8PzRH1nG7U-16">
          <mxGeometry relative="1" as="geometry" />
        </mxCell>
        <mxCell id="SXrv_YwFLO8PzRH1nG7U-14" value="&lt;div&gt;Чтение&lt;/div&gt;&lt;div&gt;следующего бита&lt;/div&gt;" style="whiteSpace=wrap;html=1;" vertex="1" parent="1">
          <mxGeometry x="234" y="400" width="120" height="60" as="geometry" />
        </mxCell>
        <mxCell id="SXrv_YwFLO8PzRH1nG7U-19" value="" style="edgeStyle=orthogonalEdgeStyle;rounded=0;orthogonalLoop=1;jettySize=auto;html=1;" edge="1" parent="1" source="SXrv_YwFLO8PzRH1nG7U-16" target="SXrv_YwFLO8PzRH1nG7U-18">
          <mxGeometry relative="1" as="geometry" />
        </mxCell>
        <mxCell id="SXrv_YwFLO8PzRH1nG7U-22" value="" style="edgeStyle=orthogonalEdgeStyle;rounded=0;orthogonalLoop=1;jettySize=auto;html=1;" edge="1" parent="1" source="SXrv_YwFLO8PzRH1nG7U-16" target="SXrv_YwFLO8PzRH1nG7U-21">
          <mxGeometry relative="1" as="geometry" />
        </mxCell>
        <mxCell id="SXrv_YwFLO8PzRH1nG7U-16" value="Бит = 1?" style="rhombus;whiteSpace=wrap;html=1;" vertex="1" parent="1">
          <mxGeometry x="254" y="530" width="80" height="80" as="geometry" />
        </mxCell>
        <mxCell id="SXrv_YwFLO8PzRH1nG7U-23" style="edgeStyle=orthogonalEdgeStyle;rounded=0;orthogonalLoop=1;jettySize=auto;html=1;exitX=0;exitY=0.5;exitDx=0;exitDy=0;" edge="1" parent="1" source="SXrv_YwFLO8PzRH1nG7U-18">
          <mxGeometry relative="1" as="geometry">
            <mxPoint x="411" y="290" as="targetPoint" />
            <Array as="points">
              <mxPoint x="30" y="680" />
              <mxPoint x="30" y="290" />
            </Array>
          </mxGeometry>
        </mxCell>
        <mxCell id="SXrv_YwFLO8PzRH1nG7U-18" value="Z+2Y" style="whiteSpace=wrap;html=1;" vertex="1" parent="1">
          <mxGeometry x="134" y="650" width="120" height="60" as="geometry" />
        </mxCell>
        <mxCell id="SXrv_YwFLO8PzRH1nG7U-20" value="да" style="text;html=1;align=center;verticalAlign=middle;whiteSpace=wrap;rounded=0;" vertex="1" parent="1">
          <mxGeometry x="200" y="600" width="60" height="30" as="geometry" />
        </mxCell>
        <mxCell id="SXrv_YwFLO8PzRH1nG7U-24" style="edgeStyle=orthogonalEdgeStyle;rounded=0;orthogonalLoop=1;jettySize=auto;html=1;exitX=0;exitY=0.5;exitDx=0;exitDy=0;" edge="1" parent="1" source="SXrv_YwFLO8PzRH1nG7U-21">
          <mxGeometry relative="1" as="geometry">
            <mxPoint x="30" y="570" as="targetPoint" />
          </mxGeometry>
        </mxCell>
        <mxCell id="SXrv_YwFLO8PzRH1nG7U-21" value="Y+1" style="whiteSpace=wrap;html=1;" vertex="1" parent="1">
          <mxGeometry x="74" y="540" width="120" height="60" as="geometry" />
        </mxCell>
        <mxCell id="SXrv_YwFLO8PzRH1nG7U-25" value="нет" style="text;html=1;align=center;verticalAlign=middle;whiteSpace=wrap;rounded=0;" vertex="1" parent="1">
          <mxGeometry x="200" y="540" width="60" height="30" as="geometry" />
        </mxCell>
        <mxCell id="SXrv_YwFLO8PzRH1nG7U-26" value="Конец" style="ellipse;whiteSpace=wrap;html=1;" vertex="1" parent="1">
          <mxGeometry x="502" y="800" width="80" height="80" as="geometry" />
        </mxCell>
      </root>
    </mxGraphModel>
  </diagram>
</mxfile>
